HIERARCHY
ROOT Hips
{
	OFFSET 0.000000 0.000000 0.000000
	CHANNELS 6 Xposition Yposition Zposition Zrotation Yrotation Xrotation 
	JOINT LHipJoint
	{
		OFFSET 0.000000 0.000000 0.000000
		CHANNELS 3 Zrotation Yrotation Xrotation
		JOINT LeftUpLeg
		{
			OFFSET 1.363060 -1.794630 0.839290
			CHANNELS 3 Zrotation Yrotation Xrotation
			JOINT LeftLeg
			{
				OFFSET 2.448110 -6.726130 0.000000
				CHANNELS 3 Zrotation Yrotation Xrotation
				JOINT LeftFoot
				{
					OFFSET 2.562200 -7.039590 0.000000
					CHANNELS 3 Zrotation Yrotation Xrotation
					JOINT LeftToeBase
					{
						OFFSET 0.157640 -0.433110 2.322550
						CHANNELS 3 Zrotation Yrotation Xrotation
						End Site
						{
							OFFSET 0.000000 0.000000 0.000000
						}
					}
				}
			}
		}
	}
	JOINT RHipJoint
	{
		OFFSET 0.000000 0.000000 0.000000
		CHANNELS 3 Zrotation Yrotation Xrotation
		JOINT RightUpLeg
		{
			OFFSET -1.305520 -1.794630 0.839290
			CHANNELS 3 Zrotation Yrotation Xrotation
			JOINT RightLeg
			{
				OFFSET -2.542530 -6.985550 0.000000
				CHANNELS 3 Zrotation Yrotation Xrotation
				JOINT RightFoot
				{
					OFFSET -2.568260 -7.056230 0.000000
					CHANNELS 3 Zrotation Yrotation Xrotation
					JOINT RightToeBase
					{
						OFFSET -0.164730 -0.452590 2.363150
						CHANNELS 3 Zrotation Yrotation Xrotation
						End Site
						{
							OFFSET 0.000000 0.000000 0.000000
						}
					}
				}
			}
		}
	}
	JOINT LowerBack
	{
		OFFSET 0.000000 0.000000 0.000000
		CHANNELS 3 Zrotation Yrotation Xrotation
		JOINT Spine
		{
			OFFSET 0.028270 2.035590 -0.193380
			CHANNELS 3 Zrotation Yrotation Xrotation
			JOINT Spine1
			{
				OFFSET 0.056720 2.048850 -0.042750
				CHANNELS 3 Zrotation Yrotation Xrotation
				JOINT Neck
				{
					OFFSET 0.000000 0.000000 0.000000
					CHANNELS 3 Zrotation Yrotation Xrotation
					JOINT Neck1
					{
						OFFSET -0.054170 1.746240 0.172020
						CHANNELS 3 Zrotation Yrotation Xrotation
						JOINT Head
						{
							OFFSET 0.104070 1.761360 -0.123970
							CHANNELS 3 Zrotation Yrotation Xrotation
							End Site
							{
								OFFSET 0.000000 0.000000 0.000000
							}
						}
					}
				}
				JOINT LeftShoulder
				{
					OFFSET 0.000000 0.000000 0.000000
					CHANNELS 3 Zrotation Yrotation Xrotation
					JOINT LeftArm
					{
						OFFSET 3.362410 1.200890 -0.311210
						CHANNELS 3 Zrotation Yrotation Xrotation
						JOINT LeftForeArm
						{
							OFFSET 4.983000 -0.000000 -0.000000
							CHANNELS 3 Zrotation Yrotation Xrotation
							JOINT LeftHand
							{
								OFFSET 3.483560 -0.000000 -0.000000
								CHANNELS 3 Zrotation Yrotation Xrotation
								JOINT LeftFingerBase
								{
									OFFSET 0.000000 0.000000 0.000000
									CHANNELS 3 Zrotation Yrotation Xrotation
									JOINT LeftHandIndex1
									{
										OFFSET 0.715260 -0.000000 -0.000000
										CHANNELS 3 Zrotation Yrotation Xrotation
										End Site
										{
											OFFSET 0.000000 0.000000 0.000000
										}
									}
								}
								JOINT LThumb
								{
									OFFSET 0.000000 0.000000 0.000000
									CHANNELS 3 Zrotation Yrotation Xrotation
									End Site
									{
										OFFSET 0.000000 0.000000 0.000000
									}
								}
							}
						}
					}
				}
				JOINT RightShoulder
				{
					OFFSET 0.000000 0.000000 0.000000
					CHANNELS 3 Zrotation Yrotation Xrotation
					JOINT RightArm
					{
						OFFSET -3.136600 1.374050 -0.404650
						CHANNELS 3 Zrotation Yrotation Xrotation
						JOINT RightForeArm
						{
							OFFSET -5.241900 -0.000000 -0.000000
							CHANNELS 3 Zrotation Yrotation Xrotation
							JOINT RightHand
							{
								OFFSET -3.444170 -0.000000 -0.000000
								CHANNELS 3 Zrotation Yrotation Xrotation
								JOINT RightFingerBase
								{
									OFFSET 0.000000 0.000000 0.000000
									CHANNELS 3 Zrotation Yrotation Xrotation
									JOINT RightHandIndex1
									{
										OFFSET -0.622530 -0.000000 -0.000000
										CHANNELS 3 Zrotation Yrotation Xrotation
										End Site
										{
											OFFSET 0.000000 0.000000 0.000000
										}
									}
								}
								JOINT RThumb
								{
									OFFSET 0.000000 0.000000 0.000000
									CHANNELS 3 Zrotation Yrotation Xrotation
									End Site
									{
										OFFSET 0.000000 0.000000 0.000000
									}
								}
							}
						}
					}
				}
			}
		}
	}
}
MOTION
Frames: 8
Frame Time: 0.008333
1.220900 17.903135 -24.213370 3.819698 2.471888 1.586807 -3.367306 5.919112 6.847578 -21.004591 -6.048022 -1.018473 -1.362902 3.419903 17.088437 1.491876 -4.042715 1.761291 0.020300 0.918900 2.525800 3.227036 -3.126350 1.435856 7.906780 13.692356 -30.417323 0.465927 -6.074940 17.507207 4.710496 -15.880153 8.008585 -0.004500 -0.433400 1.190800 -4.636653 -2.651564 6.285319 2.947192 -3.578553 2.499058 4.757667 -2.027356 -7.153130 -6.110410 -3.281070 -14.794639 2.612701 -3.185255 17.182855 -0.142000 -1.414900 9.051400 -7.346367 2.057646 -1.051940 -76.365687 -5.342550 28.785395 13.583023 -23.021286 -3.064858 -0.841819 -1.011293 -6.944598 29.615186 16.482284 9.993600 -7.125000 0.000000 0.000000 2.633000 49.908200 0.318800 11.677723 -1.955126 -2.736400 73.610811 -4.489002 5.968186 -8.372110 19.264970 -1.834518 1.207777 -0.602174 5.586979 -17.036917 20.481008 -6.708000 7.125000 0.000000 0.000000 6.544000 -8.249100 5.574900 
1.202343 17.896882 -24.035469 4.213639 2.758493 1.714502 -3.386152 6.003536 6.976552 -21.194977 -5.728448 -0.193460 -1.486929 3.072698 16.217707 1.575524 -4.436011 1.988456 0.006000 0.498900 1.370900 3.345372 -3.180341 1.337940 6.633025 14.694822 -29.789946 0.809200 -5.219031 15.011126 5.026582 -16.595657 7.729853 -0.000000 0.024200 -0.066500 -5.299595 -2.813193 6.283901 3.090348 -3.856607 2.425440 5.272035 -2.147837 -7.172391 -6.449635 -3.248465 -14.695359 2.588974 -3.060864 17.233332 -0.080200 -1.384500 9.054300 -7.350595 2.048425 -1.045053 -76.553503 -5.561940 28.512245 13.710406 -23.187526 -3.119227 -0.854046 -0.982090 -6.971759 29.914759 15.686366 9.657000 -7.125000 0.000000 0.000000 3.035500 49.030300 0.302000 11.695393 -1.958697 -2.744906 73.284144 -4.633185 5.860419 -8.216700 19.046786 -1.770973 1.193222 -0.693999 5.845611 -16.511148 21.752030 -6.901100 7.125000 0.000000 0.000000 6.967300 -6.930500 6.122300 
1.185501 17.885789 -23.854038 4.411474 3.101300 1.757307 -3.380737 6.092164 7.086450 -21.223992 -5.672171 0.600328 -1.552273 2.874429 15.727093 1.630949 -4.695249 2.097637 0.013000 -0.736300 -2.023400 3.439367 -3.242165 1.267899 5.663057 15.510448 -29.213006 1.076080 -4.460864 12.866597 5.351844 -17.274592 7.164472 -0.000100 0.077400 -0.212600 -5.594907 -2.988151 6.357474 3.179293 -4.119711 2.291027 5.540985 -2.265934 -7.308387 -6.725556 -3.194817 -14.499845 2.580024 -2.934166 17.504349 -0.019300 -1.342100 9.114300 -7.348088 2.050848 -1.040692 -76.637762 -5.533189 28.345353 13.873888 -23.422773 -3.188260 -0.856121 -1.009017 -6.923891 30.167837 16.461507 10.201600 -7.125000 0.000000 0.000000 3.206900 49.979700 0.394000 11.705294 -1.964800 -2.760890 73.122758 -5.020419 5.591632 -8.143495 18.957579 -1.751699 1.189628 -0.692622 6.113604 -16.386786 21.609049 -6.806600 7.125000 0.000000 0.000000 7.036600 -7.099600 6.160800 
1.166340 17.878628 -23.673717 4.439242 3.399549 1.933812 -3.379339 6.184508 7.189396 -21.033254 -5.712996 1.252406 -1.634227 2.668499 15.177959 1.698635 -5.004374 2.430772 0.000200 -0.090700 -0.249100 3.527747 -3.315818 1.207900 4.875732 16.478271 -28.647184 1.310315 -3.703789 10.852716 5.702258 -17.856792 5.797603 -0.000200 0.083500 -0.229500 -5.655337 -3.159471 6.217132 3.206640 -4.346439 2.138568 5.611153 -2.375679 -7.351634 -6.744765 -3.091790 -14.045024 2.668566 -2.867607 17.277947 0.020700 -1.307100 8.958900 -7.342873 2.031349 -1.035747 -76.510712 -5.623540 28.231534 13.960490 -23.564473 -3.223497 -0.858755 -1.086110 -6.956546 30.590943 18.551390 11.584000 -7.125000 0.000000 0.000000 3.386800 52.496500 0.625500 11.715288 -1.986988 -2.782142 73.131379 -5.374719 5.664635 -8.086487 18.873248 -1.734368 1.219565 -0.619054 5.970065 -16.958778 20.516736 -6.696700 7.125000 0.000000 0.000000 6.585900 -8.214700 5.615600 
1.143547 17.879637 -23.497934 4.308464 3.695007 2.086085 -3.369930 6.269855 7.276499 -20.639467 -5.704450 1.662335 -1.668918 2.588302 14.950349 1.817117 -5.459027 2.717291 0.002300 -0.306600 -0.842500 3.620112 -3.406643 1.174058 4.424843 17.348503 -28.063878 1.478248 -3.075314 9.244760 6.124831 -18.625195 4.320451 -0.029100 1.101600 -3.028300 -5.654296 -3.292127 6.200116 3.362196 -4.519424 2.059483 5.763823 -2.453264 -7.399258 -6.759589 -3.062977 -13.770422 2.627202 -2.866973 16.821030 0.004300 -1.321100 8.758100 -7.343947 2.008183 -1.031134 -76.531352 -5.909254 28.045149 14.016814 -23.639569 -3.245349 -0.848156 -1.122301 -7.038415 30.488424 19.544774 12.101200 -7.125000 0.000000 0.000000 3.121500 53.628000 0.662800 11.728863 -2.004421 -2.790149 73.062118 -5.451460 5.219368 -7.950363 18.650773 -1.685680 1.225031 -0.616141 6.304593 -17.073090 20.272773 -6.666200 7.125000 0.000000 0.000000 6.491900 -8.460800 5.502500 
1.120049 17.872880 -23.322151 4.398603 3.931328 2.157266 -3.347880 6.328159 7.327978 -20.552725 -5.888987 2.146021 -1.654488 2.615056 15.038018 1.879231 -5.729948 2.848463 0.007300 -0.553400 -1.520800 3.680453 -3.496986 1.168958 3.945931 17.939950 -27.495378 1.588613 -2.605258 8.004850 6.484453 -19.357494 3.448311 -0.022400 0.965700 -2.654500 -6.031698 -3.402782 6.411863 3.549175 -4.720667 1.878161 6.178702 -2.519990 -7.650170 -6.951769 -3.004012 -13.423574 2.617568 -2.789378 16.666921 0.039900 -1.302600 8.647000 -7.349339 2.000616 -1.024277 -76.645236 -5.938424 27.955402 14.027869 -23.644809 -3.248220 -0.836937 -1.125104 -7.257193 30.266770 19.541105 11.994900 -7.125000 0.000000 0.000000 2.877400 53.578000 0.607400 11.750439 -2.019311 -2.804438 72.808497 -5.715517 4.758212 -7.774500 18.388979 -1.628253 1.218421 -0.634144 6.846091 -16.893192 20.262878 -6.596300 7.125000 0.000000 0.000000 6.606900 -8.487000 5.597800 
1.095341 17.856845 -23.144553 4.304079 3.992643 2.263608 -3.317442 6.372527 7.375560 -20.299722 -5.920389 2.468561 -1.618040 2.689689 15.250664 1.927134 -5.904294 2.880113 0.026500 -1.050900 -2.888700 3.708992 -3.526564 1.159374 4.104816 17.865920 -27.399552 1.649305 -2.394721 7.432334 6.596341 -19.640306 3.405268 -0.083800 1.867400 -5.139400 -6.076561 -3.435953 6.456872 3.634784 -4.772529 1.727009 6.284553 -2.535585 -7.819148 -7.030193 -2.968431 -13.060574 2.688174 -2.785293 16.534200 0.076800 -1.301000 8.540700 -7.349393 1.990931 -1.019262 -76.623462 -5.977308 27.813676 14.010365 -23.633814 -3.240164 -0.855476 -1.165390 -7.144655 30.868668 20.625946 12.898500 -7.125000 0.000000 0.000000 3.365800 54.961100 0.824100 11.756462 -2.038900 -2.822543 72.869866 -6.090902 4.244259 -7.691526 18.259954 -1.594814 1.227832 -0.651048 7.145757 -17.033177 20.413057 -6.703200 7.125000 0.000000 0.000000 6.518200 -8.305800 5.545200 
1.073557 17.839297 -22.970888 4.104936 4.171309 2.376275 -3.271270 6.401114 7.408258 -19.966721 -6.209070 2.814380 -1.581750 2.784024 15.500577 1.929816 -5.902920 2.948780 0.057500 -1.547400 -4.256500 3.680690 -3.470995 1.162264 4.843483 16.812531 -27.882148 1.661250 -2.505056 7.635806 6.364416 -19.260330 4.325052 -0.067900 1.681100 -4.625300 -5.869974 -3.498854 6.488506 3.698414 -4.824548 1.747420 6.237520 -2.576386 -7.832338 -6.960338 -2.991297 -13.392725 2.671047 -2.782508 16.617122 0.061000 -1.295600 8.626300 -7.353767 1.989112 -1.022417 -76.494998 -6.272941 27.892200 14.123094 -23.830023 -3.291590 -0.902765 -1.262909 -7.174034 32.623496 23.101178 15.255100 -7.125000 0.000000 0.000000 4.975800 58.234000 1.613500 11.746771 -2.034087 -2.824111 72.985206 -6.208458 4.069487 -7.720459 18.303180 -1.605673 1.236169 -0.630370 6.997177 -17.177714 20.174428 -6.681900 7.125000 0.000000 0.000000 6.406800 -8.550600 5.417900 
